<svg id="Lager_1" data-name="Lager 1" xmlns="http://www.w3.org/2000/svg" viewBox="0 0 1110.55 147.29"><title>shopperia</title><path d="M1351,1483.51c-.38,15.89-1.78,28.91-7.28,41.14-7.63,17-20.32,28.18-38.39,32.86a85.17,85.17,0,0,1-43.47-.06c-22.17-5.81-35.59-20.73-41.52-42.36a108.38,108.38,0,0,1-.42-55.8c7.15-28.35,28.38-45.56,57.65-46.07,10.34-.18,21.18.5,31,3.4,23.89,7.05,35.8,25.19,40.32,48.73C1350.16,1472.18,1350.47,1479.2,1351,1483.51Zm-24.93,6.23c-.37-5.56-.53-10.39-1-15.18a82.37,82.37,0,0,0-1.92-10.79c-5.16-20.65-18.42-30.68-40.24-30.6-19.91.07-33.91,11.16-38.59,31a95.7,95.7,0,0,0-.08,44.08c4.37,18.83,15.74,29.11,34.13,31.37,22.85,2.81,39.47-8.49,44.82-30.88C1324.63,1502.32,1325.14,1495.64,1326,1489.74Z" transform="translate(-948.63 -1413.01)"/><path d="M1819,1495.1l40.12,62.88c-9,0-17.14.16-25.22-.15-1.3,0-2.88-1.93-3.73-3.32-9.42-15.51-19-30.93-27.89-46.73-3-5.41-6.48-7.55-12.51-6.88-4.59.51-9.27.1-14.51.1v56.74h-23.13v-143c21.78,1.43,43.52-2.48,64.82,3,17.63,4.51,27.43,15.47,29.07,31.41,2.12,20.57-4.6,34.17-21.21,42.92C1823.06,1493,1821.3,1493.9,1819,1495.1Zm-43.59-12.21c10.91-1,21.43-1.16,31.55-3.24,10.42-2.14,15.32-10.48,15.2-22.22-.11-11-4.75-18.09-15.49-20.17-10.12-2-20.6-2.1-31.26-3.06Z" transform="translate(-948.63 -1413.01)"/><path d="M1071.22,1415.16H1094v57.54h65.86v-57.43h23.22v142.41h-22.84v-64.33h-66v64.32h-23Z" transform="translate(-948.63 -1413.01)"/><path d="M1980.25,1415c7.86,0,15.53-.2,23.16.19,1.42.07,3.35,2.26,4,3.88,11,28.92,21.75,57.9,32.58,86.87q8.73,23.36,17.44,46.73c.57,1.53,1.09,3.07,1.78,5h-25c-4.1-11.54-8.37-23.23-12.34-35-1.18-3.49-2.77-4.85-6.66-4.78q-22.49.4-45,0c-3.51-.06-4.93,1.14-6,4.29-3.94,11.82-8.14,23.57-12.31,35.55h-24.93Zm33.42,82.81c-6.87-20.07-13.63-39.83-20.48-59.87-6.87,20.19-13.57,39.91-20.35,59.87Z" transform="translate(-948.63 -1413.01)"/><path d="M1408.17,1505v52.61h-23.08V1415.73c.26-.2.53-.58.79-.57,19.94.52,40.08-.49,59.76,2,21.95,2.83,32.59,16.73,33.84,38.59,1.26,22.1-9.24,38.85-29.33,45.14-7.51,2.36-15.6,3.13-23.49,3.94C1420.76,1505.49,1414.74,1505,1408.17,1505Zm.14-20.44c6.91,0,13.43.57,19.79-.17a52,52,0,0,0,16.19-4.4c8.93-4.28,11.1-12.65,10.85-21.85-.22-8.61-3.32-15.68-11.53-19.43-11.32-5.18-23.31-3.47-35.3-3.61Z" transform="translate(-948.63 -1413.01)"/><path d="M1534.12,1505.53v52.2h-23V1415c11.82,0,23.44-.22,35,.07,8.46.22,17.07.24,25.32,1.85,23.91,4.67,35.81,21,33.88,45.22-1.89,23.75-16.1,38.64-40.66,41.71C1554.88,1505.08,1544.85,1505,1534.12,1505.53Zm.28-20.75c6.37,0,12.26.55,18-.16s11.93-1.88,17.26-4.3c10.1-4.59,12-13.84,11.38-23.94-.61-9.44-5.56-16.09-14.42-19-10.48-3.39-21.27-2.37-32.21-2.27Z" transform="translate(-948.63 -1413.01)"/><path d="M1637,1557.73V1415.32h80.54v19.51H1660.5V1474h53.22v19.88h-53.26v43.93h57v20Z" transform="translate(-948.63 -1413.01)"/><path d="M1038,1422.36l-7,17.87c-9.66-2.31-18.87-5.18-28.29-6.52a41.19,41.19,0,0,0-17.65,1.47,16.89,16.89,0,0,0-6.4,28.37c4.61,4.31,10.69,7.2,16.4,10.18,9.41,4.91,19.44,8.74,28.55,14.15,22.25,13.23,19.41,43.61,8.35,56.13-7.28,8.24-16.56,12.87-27.16,14.61-17,2.8-33.81,1.93-50.3-3.53-4.16-1.38-6.37-3.18-5.85-8.07.55-5.26.12-10.62.12-16.76,2.29.88,4,1.58,5.81,2.24,14.5,5.39,29.25,9.07,44.9,6.52,9.42-1.53,15.29-6.59,17-14.56,1.69-7.75-1.54-15.24-9.8-20.06a218.58,218.58,0,0,0-21.49-10.46c-9.18-4.07-18.31-8.26-25.14-15.85-19.08-21.23-10.46-53.37,16.56-62.23C993.9,1410.21,1023.27,1413.25,1038,1422.36Z" transform="translate(-948.63 -1413.01)"/><path d="M1904.78,1557.84h-22.56V1415.33h22.56Z" transform="translate(-948.63 -1413.01)"/></svg>